<svg xmlns="http://www.w3.org/2000/svg" width="52.506" height="52.601" viewBox="0 0 52.506 52.601">
  <g id="handshake_2_" data-name="handshake (2)" transform="translate(27.533 27.4)">
    <g id="Grupo_107" data-name="Grupo 107" transform="translate(-27.533 -27.4)">
      <g id="Grupo_106" data-name="Grupo 106" transform="translate(0 0)">
        <path id="Caminho_228" data-name="Caminho 228" d="M52.765,29.906a.771.771,0,0,0-1.089-.037l-3.124,2.92L34.236,18.664,52.729,1.334A.771.771,0,0,0,51.675.209L32.6,18.088a.779.779,0,0,0-.014,1.111l1.266,1.249-.4.357-8.464-.729a.772.772,0,0,0-.385.066L17.89,23.2c-.02-.005-.039-.01-.059-.014L13.973,22.5l.312-.8a.771.771,0,0,0-.431-1L1.524,15.777a.771.771,0,1,0-.572,1.431l11.62,4.648-6.848,17.5-4.229-1.5A.771.771,0,0,0,.98,39.31l4.932,1.747a.778.778,0,0,0,.975-.446l1.144-2.925,3,1.68L10.7,39.9a3.235,3.235,0,0,0,3.753,4.777,3.233,3.233,0,0,0,4.2,2.59,3.235,3.235,0,0,0,4.2,2.591A3.234,3.234,0,0,0,28.8,51.071l.526-.852.433.266a3.231,3.231,0,0,0,4.452-1.063,3.218,3.218,0,0,0,.471-1.888,3.2,3.2,0,0,0,.748.091,3.262,3.262,0,0,0,2.764-1.543,3.213,3.213,0,0,0,.473-1.888,3.2,3.2,0,0,0,.746.09,3.262,3.262,0,0,0,2.764-1.543,3.213,3.213,0,0,0,.473-1.889,3.236,3.236,0,0,0,2.447-5.9l-.528-.324,1.771-1.851L48,34.406a.778.778,0,0,0,1.067.014L52.728,31A.771.771,0,0,0,52.765,29.906ZM14.9,42.493a1.7,1.7,0,0,1-2.886-1.78l4.316-7a1.7,1.7,0,0,1,2.3-.57,1.753,1.753,0,0,1,.552,2.4Zm4.2,2.59a1.7,1.7,0,1,1-2.886-1.78l3.453-5.6a1.7,1.7,0,0,1,2.3-.57,1.753,1.753,0,0,1,.552,2.4Zm4.2,2.59a1.7,1.7,0,0,1-2.333.553,1.711,1.711,0,0,1-.553-2.333l2.59-4.2a1.7,1.7,0,0,1,2.3-.57,1.753,1.753,0,0,1,.552,2.4Zm5.895-.161-1.7,2.751A1.7,1.7,0,0,1,24.6,48.481l1.726-2.8a1.7,1.7,0,0,1,2.3-.57A1.753,1.753,0,0,1,29.186,47.511ZM43.225,33.8,39.4,31.449a.771.771,0,1,0-.807,1.313l5.691,3.5a1.7,1.7,0,1,1-1.775,2.889L36.41,35.4A.771.771,0,1,0,35.6,36.71l4.7,2.89a1.7,1.7,0,1,1-1.775,2.889L34.269,39.87a.771.771,0,0,0-.807,1.313l2.862,1.758a1.7,1.7,0,0,1-1.775,2.889s-2.517-1.545-2.54-1.556a.771.771,0,0,0-.738,1.351l1.07.658a1.7,1.7,0,0,1-1.775,2.889l-.43-.264.362-.587a3.336,3.336,0,0,0,.394-2.537,3.186,3.186,0,0,0-3.326-2.434,3.34,3.34,0,0,0-.008-1.555,3.186,3.186,0,0,0-3.326-2.434,3.28,3.28,0,0,0-1.481-3.552,3.208,3.208,0,0,0-1.853-.437,3.226,3.226,0,0,0-5.882-2.465l-3.176,5.147L8.6,36.237l4.8-12.271,2.614.461a3.236,3.236,0,0,0,3.858,4.979l4.513-2.056a.771.771,0,0,0-.639-1.4L19.234,28a1.7,1.7,0,0,1-1.405-3.086l7.222-3.289,8.591.74.066,0a.771.771,0,0,0,.51-.193l.731-.646L45.242,31.688Z" transform="translate(-0.467 -0.001)" fill="#f8f7f7"/>
      </g>
    </g>
  </g>
</svg>
