<svg xmlns="http://www.w3.org/2000/svg" width="42.735" height="56.98" viewBox="0 0 42.735 56.98">
  <g id="list" transform="translate(-64)">
    <path id="Caminho_234" data-name="Caminho 234" d="M106.735,0H69.787V5.787H64v41.9l9.294,9.294h27.654V51.193h5.787ZM72.9,54.7,66.28,48.077H72.9Zm26.709.944H74.239v-8.9h-8.9V7.122H99.612Zm5.787-5.787h-4.452V5.787H71.122V1.335H105.4Z" fill="#f8f7f7"/>
    <path id="Caminho_235" data-name="Caminho 235" d="M118,100h17.806v1.335H118Z" transform="translate(-47.99 -88.871)" fill="#f8f7f7"/>
    <path id="Caminho_236" data-name="Caminho 236" d="M118,132h14.245v1.335H118Z" transform="translate(-47.99 -117.31)" fill="#f8f7f7"/>
    <path id="Caminho_237" data-name="Caminho 237" d="M116.9,180H112v4.9h4.9Zm-1.335,3.561h-2.226v-2.226h2.226Z" transform="translate(-42.658 -159.968)" fill="#f8f7f7"/>
    <path id="Caminho_238" data-name="Caminho 238" d="M182,212h14.245v1.335H182Z" transform="translate(-104.868 -188.407)" fill="#f8f7f7"/>
    <path id="Caminho_239" data-name="Caminho 239" d="M182,180h17.806v1.335H182Z" transform="translate(-104.868 -159.968)" fill="#f8f7f7"/>
    <path id="Caminho_240" data-name="Caminho 240" d="M116.9,260H112v4.9h4.9Zm-1.335,3.561h-2.226v-2.226h2.226Z" transform="translate(-42.658 -231.065)" fill="#f8f7f7"/>
    <path id="Caminho_241" data-name="Caminho 241" d="M182,292h14.245v1.335H182Z" transform="translate(-104.868 -259.504)" fill="#f8f7f7"/>
    <path id="Caminho_242" data-name="Caminho 242" d="M182,260h17.806v1.335H182Z" transform="translate(-104.868 -231.065)" fill="#f8f7f7"/>
    <path id="Caminho_243" data-name="Caminho 243" d="M116.9,340H112v4.9h4.9Zm-1.335,3.561h-2.226v-2.226h2.226Z" transform="translate(-42.658 -302.162)" fill="#f8f7f7"/>
    <path id="Caminho_244" data-name="Caminho 244" d="M182,372h14.245v1.335H182Z" transform="translate(-104.868 -330.601)" fill="#f8f7f7"/>
    <path id="Caminho_245" data-name="Caminho 245" d="M182,340h17.806v1.335H182Z" transform="translate(-104.868 -302.162)" fill="#f8f7f7"/>
    <path id="Caminho_246" data-name="Caminho 246" d="M182,452h14.245v1.335H182Z" transform="translate(-104.868 -401.698)" fill="#f8f7f7"/>
    <path id="Caminho_247" data-name="Caminho 247" d="M182,420h17.806v1.335H182Z" transform="translate(-104.868 -373.259)" fill="#f8f7f7"/>
  </g>
</svg>
