<svg xmlns="http://www.w3.org/2000/svg" width="54.087" height="51.736" viewBox="0 0 54.087 51.736">
  <path id="users" d="M49.592,42.843l-8.612-4.493a2.488,2.488,0,0,1-1.317-2.225v-3.18c.206-.263.424-.563.648-.895A21.893,21.893,0,0,0,42.975,26.6a3.744,3.744,0,0,0,2.1-3.4V19.432a3.846,3.846,0,0,0-.9-2.469v-5a8.7,8.7,0,0,0-1.886-6.138C40.434,3.617,37.429,2.5,33.354,2.5s-7.08,1.117-8.932,3.32a8.36,8.36,0,0,0-1.861,4.52,11.306,11.306,0,0,0-5.434-1.256c-9.365,0-9.911,8.329-9.916,8.466v4.307a3.347,3.347,0,0,0-.9,2.192V27.3a3.415,3.415,0,0,0,1.182,2.6,14.548,14.548,0,0,0,3.285,5.912v2.58a2.056,2.056,0,0,1-1.056,1.8l-6,3.925A7.508,7.508,0,0,0,0,50.664v3.572H54.087v-3.8A8.485,8.485,0,0,0,49.592,42.843ZM12.62,50.249v2.105H1.8v-1.69a5.638,5.638,0,0,1,2.831-4.922l6-3.925a3.926,3.926,0,0,0,1.948-3.425V35.013l-.287-.279a12.62,12.62,0,0,1-3.126-5.6l-.082-.372-.308-.207A1.511,1.511,0,0,1,8.113,27.3V24.049a1.664,1.664,0,0,1,.6-1.1l.3-.279,0-5.061c.016-.27.486-6.639,8.115-6.639a9.1,9.1,0,0,1,5.409,1.546v4.45a3.846,3.846,0,0,0-.9,2.469v3.763a3.94,3.94,0,0,0,.091.84c.024.109.073.209.106.314a3.824,3.824,0,0,0,.159.47l0,0a3.746,3.746,0,0,0,.991,1.3c0,.018.01.034.014.051.054.215.111.43.172.64l.073.246c.013.043.028.087.041.131.032.1.062.2.095.3.054.165.111.335.177.52.028.077.059.147.087.223.074.2.148.387.225.575.019.045.035.094.054.138l.05.119c.023.055.048.1.071.157.088.2.175.4.265.584.014.03.028.063.042.093.057.118.114.229.17.341.1.194.193.376.288.553.047.087.093.171.139.253.13.231.253.444.373.642.026.042.051.087.077.127.218.353.407.639.564.862l.113.16.064.091v3.113A2.5,2.5,0,0,1,24.9,38.22l-2.385,1.357-.416-.039-.169.372L16.858,42.8A8.549,8.549,0,0,0,12.62,50.249Zm39.664,2.105H14.423V50.249a6.648,6.648,0,0,1,3.3-5.8l8.042-4.577a4.4,4.4,0,0,0,2.182-3.835v-3.78h0l-.175-.218L27.736,32s-.058-.073-.149-.2l-.017-.023c-.048-.065-.1-.143-.168-.236l0,0c-.134-.195-.3-.448-.49-.753l-.013-.021c-.088-.144-.182-.3-.278-.468l-.022-.038c-.2-.357-.42-.76-.636-1.207v0c-.114-.24-.229-.492-.341-.754h0c-.015-.037-.032-.072-.047-.109h0c-.05-.118-.1-.241-.15-.368l-.054-.141c-.047-.123-.095-.247-.145-.389-.092-.256-.178-.523-.261-.8l-.05-.167c-.005-.019-.012-.038-.017-.057-.085-.3-.166-.6-.234-.913l-.082-.372-.307-.207a1.9,1.9,0,0,1-.835-1.577V19.432a1.892,1.892,0,0,1,.6-1.387l.3-.279V11.573l-.024-.02a6.706,6.706,0,0,1,1.463-4.493c1.494-1.779,4.043-2.68,7.576-2.68s6.064.895,7.56,2.66a6.832,6.832,0,0,1,1.463,4.742l-.008,5.982.3.28a1.889,1.889,0,0,1,.6,1.387v3.763a1.862,1.862,0,0,1-1.282,1.786l-.449.144-.144.466a20.046,20.046,0,0,1-2.555,5.374,12.323,12.323,0,0,1-.755,1.015l-.224.267v3.88a4.367,4.367,0,0,0,2.313,3.907l8.612,4.493a6.6,6.6,0,0,1,3.5,5.907Z" transform="translate(0 -2.5)" fill="#f8f7f7"/>
</svg>
